<svg xmlns="http://www.w3.org/2000/svg" xmlns:xlink="http://www.w3.org/1999/xlink">
<style xmlns="http://www.w3.org/2000/svg"><![CDATA[:root>svg{display:none}:root>svg:target{display:block}]]></style>
	<svg id="icon-arrow-down" xmlns="http://www.w3.org/2000/svg" fill="none" viewBox="0 0 8 4">
		<path fill="currentColor" fill-rule="evenodd" d="M3.674 2.63a.5.5 0 0 0 .707-.004L6.644.336a.5.5 0 1 1 .712.704L5.092 3.33a1.5 1.5 0 0 1-2.121.011L.648 1.044a.5.5 0 1 1 .704-.71L3.674 2.63z" clip-rule="evenodd"/>
	</svg>
	<svg id="icon-select-arrow-down" xmlns="http://www.w3.org/2000/svg" fill="none" viewBox="0 0 8 4">
		<path fill="currentColor" fill-rule="evenodd" d="M3.674 2.63a.5.5 0 0 0 .707-.004L6.644.336a.5.5 0 1 1 .712.704L5.092 3.33a1.5 1.5 0 0 1-2.121.011L.648 1.044a.5.5 0 1 1 .704-.71L3.674 2.63z" clip-rule="evenodd"/>
	</svg>
	<symbol id="icon-arrow-left" xmlns="http://www.w3.org/2000/svg" fill="none" viewBox="0 0 5 9">
		<path fill="currentColor" fill-rule="evenodd" d="M1.935 4.209a.5.5 0 0 0 .004.65l2.439 2.814a.5.5 0 0 1-.756.655L1.183 5.514a1.5 1.5 0 0 1-.01-1.952L3.618.677a.5.5 0 1 1 .763.646L1.935 4.21z" clip-rule="evenodd"/>
	</symbol>
	<symbol id="icon-arrow-right" xmlns="http://www.w3.org/2000/svg" fill="none" viewBox="0 0 5 9">
		<path fill="currentColor" fill-rule="evenodd" d="M3.065 4.791a.5.5 0 0 0-.004-.65L.622 1.327a.5.5 0 0 1 .756-.655l2.439 2.814a1.5 1.5 0 0 1 .01 1.952L1.382 8.323a.5.5 0 1 1-.763-.646L3.065 4.79z" clip-rule="evenodd"/>
	</symbol>
	<svg id="icon-account" viewBox="0 0 22 22" fill="none" xmlns="http://www.w3.org/2000/svg">
		<path d="M19 20V18C19 16.9391 18.5786 15.9217 17.8284 15.1716C17.0783 14.4214 16.0609 14 15 14H7C5.93913 14 4.92172 14.4214 4.17157 15.1716C3.42143 15.9217 3 16.9391 3 18V20" stroke="currentColor" stroke-width="1.8" stroke-linecap="round" stroke-linejoin="round"/>
		<path d="M11 10C13.2091 10 15 8.20914 15 6C15 3.79086 13.2091 2 11 2C8.79086 2 7 3.79086 7 6C7 8.20914 8.79086 10 11 10Z" stroke="currentColor" stroke-width="1.8" stroke-linecap="round" stroke-linejoin="round"/>
	</svg>
	<svg id="icon-hsearch" xmlns="http://www.w3.org/2000/svg" fill="none" viewBox="0 0 16 16">
		<path fill="currentColor" fill-rule="evenodd" d="M14.177 7.176A6.588 6.588 0 1 0 1 7.176a6.588 6.588 0 0 0 13.177 0zm-11.942 0a5.353 5.353 0 1 1 10.706 0 5.353 5.353 0 0 1-10.706 0z" clip-rule="evenodd"/>
		<path fill="currentColor" d="M11.156 11.517a.618.618 0 0 1 .805-.053l.069.06 2.587 2.631a.618.618 0 0 1-.812.927l-.07-.06-2.586-2.632a.618.618 0 0 1 .007-.873z"/>
	</svg>
	<svg id="icon-search-category" xmlns="http://www.w3.org/2000/svg" fill="none" viewBox="0 0 18 18">
		<path fill="currentColor" fill-rule="evenodd" clip-rule="evenodd" d="M16.75 3a.75.75 0 0 1-.75.75h-3.5a.75.75 0 1 1 0-1.5H16a.75.75 0 0 1 .75.75zm0 6a.75.75 0 0 1-.75.75H9.5a.75.75 0 0 1 0-1.5H16a.75.75 0 0 1 .75.75zm0 6a.75.75 0 0 1-.75.75h-.5a.75.75 0 1 1 0-1.5h.5a.75.75 0 0 1 .75.75zm-7.5 0a.75.75 0 0 1-.75.75H2a.75.75 0 1 1 0-1.5h6.5a.75.75 0 0 1 .75.75zm-3-12a.75.75 0 0 1-.75.75H2a.75.75 0 0 1 0-1.5h3.5a.75.75 0 0 1 .75.75zm-3 6a.75.75 0 0 1-.75.75H2a.75.75 0 0 1 0-1.5h.5a.75.75 0 0 1 .75.75zm5-6a.75.75 0 1 0 1.5 0 .75.75 0 0 0-1.5 0zM7 3a2 2 0 1 0 4 0 2 2 0 0 0-4 0zM5.25 9a.75.75 0 1 0 1.5 0 .75.75 0 0 0-1.5 0zM4 9a2 2 0 1 0 4 0 2 2 0 0 0-4 0zm7.25 6a.75.75 0 1 0 1.5 0 .75.75 0 0 0-1.5 0zM10 15a2 2 0 1 0 4 0 2 2 0 0 0-4 0z"/>
	</svg>
	<svg id="icon-menu" xmlns="http://www.w3.org/2000/svg" fill="none" viewBox="0 0 22 22">
		<path stroke="currentColor" stroke-linecap="round" stroke-width="1.5" d="M12.8 13.25H20m-7.2 3.15H20m-7.2 3.15H20M3 20h5.2a1 1 0 0 0 1-1v-5.2a1 1 0 0 0-1-1H3a1 1 0 0 0-1 1V19a1 1 0 0 0 1 1zM13.8 9.65H19a1 1 0 0 0 1-1V3a1 1 0 0 0-1-1h-5.2a1 1 0 0 0-1 1v5.65a1 1 0 0 0 1 1zM3 9.65h5.2a1 1 0 0 0 1-1V3a1 1 0 0 0-1-1H3a1 1 0 0 0-1 1v5.65a1 1 0 0 0 1 1z"/>
	</svg>
	<svg id="icon-menu1" xmlns="http://www.w3.org/2000/svg" fill="none" viewBox="0 0 22 18">
		<path stroke="currentColor" stroke-linecap="round" stroke-linejoin="round" stroke-width="1.5" d="M2 2h18M2 9h18M2 16h18"/>
	</svg>
	
	<svg id="icon-menu-design-2" viewBox="0 0 22 20" fill="none" xmlns="http://www.w3.org/2000/svg">
		<path fill-rule="evenodd" clip-rule="evenodd" d="M1 2.22217C1 1.80795 1.33579 1.47217 1.75 1.47217H20.2471C20.6614 1.47217 20.9971 1.80795 20.9971 2.22217C20.9971 2.63638 20.6614 2.97217 20.2471 2.97217H1.75C1.33579 2.97217 1 2.63638 1 2.22217ZM1 9.99995C1 9.58573 1.33579 9.24995 1.75 9.24995L11.25 9.24995C11.6642 9.24995 12 9.58573 12 9.99995C12 10.4142 11.6642 10.7499 11.25 10.7499H1.75C1.33579 10.7499 1 10.4142 1 9.99995ZM1 17.7777C1 17.3635 1.33579 17.0277 1.75 17.0277L15.25 17.0277C15.6642 17.0277 16 17.3635 16 17.7777C16 18.1919 15.6642 18.5277 15.25 18.5277H1.75C1.33579 18.5277 1 18.1919 1 17.7777Z" fill="black"/>
	</svg>
	<svg id="icon-contact" viewBox="0 0 22 22" fill="none" xmlns="http://www.w3.org/2000/svg">
		<path d="M19.9168 15.51V18.26C19.9178 18.5153 19.8656 18.768 19.7633 19.0019C19.661 19.2358 19.511 19.4458 19.3229 19.6184C19.1348 19.791 18.9127 19.9224 18.6708 20.0042C18.429 20.0859 18.1727 20.1163 17.9185 20.0933C15.0977 19.7868 12.3882 18.823 10.0076 17.2792C7.79282 15.8718 5.91503 13.994 4.50764 11.7792C2.95846 9.38778 1.99436 6.66509 1.69348 3.83167C1.67057 3.57819 1.70069 3.3227 1.78193 3.0815C1.86317 2.84029 1.99375 2.61864 2.16534 2.43066C2.33694 2.24268 2.5458 2.09249 2.77862 1.98965C3.01144 1.88681 3.26312 1.83358 3.51764 1.83334H6.26764C6.71251 1.82896 7.14378 1.9865 7.48109 2.27658C7.8184 2.56666 8.03871 2.9695 8.10098 3.41001C8.21705 4.29007 8.4323 5.15417 8.74264 5.98584C8.86597 6.31394 8.89267 6.67051 8.81956 7.01331C8.74645 7.35612 8.5766 7.67078 8.33014 7.92001L7.16598 9.08417C8.4709 11.3791 10.3711 13.2792 12.666 14.5842L13.8301 13.42C14.0794 13.1736 14.394 13.0037 14.7368 12.9306C15.0796 12.8575 15.4362 12.8842 15.7643 13.0075C16.596 13.3178 17.4601 13.5331 18.3401 13.6492C18.7854 13.712 19.1921 13.9363 19.4828 14.2794C19.7735 14.6225 19.928 15.0605 19.9168 15.51Z" stroke="black" stroke-width="1.8" stroke-linecap="round" stroke-linejoin="round"/>
	</svg>

	<symbol id="icon-showmore" xmlns="http://www.w3.org/2000/svg" viewBox="0 0 24 24" fill="none" stroke="currentColor" stroke-width="1.5" stroke-linecap="round" stroke-linejoin="round">
		<path d="M21.5 2v6h-6m5.84 7.57a10 10 0 1 1-.57-8.38"/>
	</symbol>
	<svg id="icon-rstar-gray" xmlns="http://www.w3.org/2000/svg" fill="none" viewBox="0 0 14 14">
		<path fill="currentColor" fill-rule="evenodd" d="m6.905 11.283-2.972 1.634c-.498.274-1.08-.168-.985-.748l.567-3.46-2.404-2.45c-.403-.41-.18-1.126.376-1.21l3.323-.506 1.486-3.147a.666.666 0 0 1 1.218 0L9 4.543l3.323.505c.557.085.78.8.376 1.21l-2.404 2.451.567 3.46c.095.58-.487 1.023-.985.75l-2.972-1.636z" clip-rule="evenodd"/>
	</svg>
	<svg id="icon-rstar-gold" xmlns="http://www.w3.org/2000/svg" fill="none" viewBox="0 0 14 14">
		<path fill="currentColor" fill-rule="evenodd" d="m6.905 11.283-2.972 1.634c-.498.274-1.08-.168-.985-.748l.567-3.46-2.404-2.45c-.403-.41-.18-1.126.376-1.21l3.323-.506 1.486-3.147a.666.666 0 0 1 1.218 0L9 4.543l3.323.505c.557.085.78.8.376 1.21l-2.404 2.451.567 3.46c.095.58-.487 1.023-.985.75l-2.972-1.636z" clip-rule="evenodd"/>
	</svg>
	<svg id="icon-compare11" xmlns="http://www.w3.org/2000/svg" fill="none" viewBox="0 0 20 18">
	  <path fill="currentColor" d="M10.65 1.5a.65.65 0 1 0-1.3 0h1.3Zm-.65 15v.65h.65v-.65H10Zm-4.675-.65a.65.65 0 1 0 0 1.3v-1.3Zm9.35 1.3a.65.65 0 1 0 0-1.3v1.3ZM16 2l.612-.219a.65.65 0 0 0-.74-.418L16 2ZM4.05 4.5l-.137-.635a.65.65 0 0 0-.467.395l.604.24Zm.916 7.89-.301-.576.3.577Zm11.778-2.04-.235-.607.235.606Zm1.004-3.455.612-.219-.612.219ZM10 15.85H5.325v1.3H10v-1.3Zm-4.675 1.3h9.35v-1.3h-9.35v1.3ZM9.35 1.5v1.714h1.3V1.5h-1.3Zm0 1.714V16.5h1.3V3.214h-1.3Zm.779.637 6-1.214-.258-1.274-6 1.214.258 1.274Zm5.259-2.07L13.64 6.676l1.224.437 1.748-4.894-1.224-.438Zm-.368 9.174c.296.115.627.195.98.195v-1.3c-.156 0-.326-.036-.509-.107l-.47 1.212Zm.98.195c.353 0 .684-.08.98-.195l-.471-1.212A1.418 1.418 0 0 1 16 9.85v1.3Zm2.36-4.474-1.748-4.895-1.224.438 1.748 4.894 1.224-.437ZM9.863 2.58l-5.95 1.286.274 1.27 5.95-1.285-.274-1.271ZM3.446 4.26 1.71 8.636l1.209.479L4.654 4.74l-1.208-.48Zm-.612 8.707c.35.183.766.326 1.216.326v-1.3c-.176 0-.383-.058-.615-.179l-.601 1.153Zm1.216.326c.45 0 .866-.143 1.216-.326l-.601-1.153c-.232.121-.439.179-.615.179v1.3Zm2.34-4.657L4.654 4.26l-1.208.48L5.18 9.115l1.209-.48Zm-1.124 4.331c.824-.43 1.253-1.185 1.396-1.977.142-.78.018-1.624-.272-2.354l-1.209.479c.217.547.293 1.143.202 1.643-.088.487-.323.85-.718 1.056l.601 1.153ZM1.71 8.636c-.29.73-.414 1.574-.272 2.354.143.792.572 1.547 1.396 1.977l.601-1.153c-.395-.205-.63-.57-.718-1.056-.09-.5-.015-1.096.202-1.643l-1.209-.48Zm15.27 2.32c.892-.348 1.376-1.09 1.56-1.886.18-.78.088-1.645-.18-2.394l-1.224.437c.2.56.252 1.17.138 1.664-.111.48-.363.81-.765.966l.47 1.212Zm-3.34-4.28c-.268.749-.36 1.614-.18 2.394.184.796.668 1.538 1.56 1.885l.471-1.212c-.402-.156-.654-.487-.765-.966-.114-.494-.062-1.104.138-1.664l-1.224-.437Z"/>
	</svg>
	<svg id="icon-compare" xmlns="http://www.w3.org/2000/svg" fill="none" viewBox="0 0 20 18">
		<path fill="currentColor" fill-rule="evenodd" d="M10 .85a.65.65 0 0 1 .65.65v.92l5.221-1.057a.65.65 0 0 1 .741.418l1.748 4.895c.268.749.361 1.614.18 2.395-.184.795-.668 1.537-1.56 1.884a2.707 2.707 0 0 1-.98.195c-.352 0-.684-.08-.98-.195-.892-.347-1.376-1.09-1.56-1.884-.18-.78-.087-1.646.18-2.395L15 2.866l-4.35.88V15.85h4.025a.65.65 0 1 1 0 1.3h-9.35a.65.65 0 1 1 0-1.3H9.35V4.02l-4.413.953L6.39 8.636c.29.73.414 1.574.273 2.354-.144.792-.572 1.547-1.397 1.977-.35.183-.765.326-1.216.326-.45 0-.865-.143-1.216-.326-.824-.43-1.252-1.185-1.396-1.977-.141-.78-.017-1.623.272-2.354L3.446 4.26a.65.65 0 0 1 .467-.395L9.35 2.69V1.5A.65.65 0 0 1 10 .85ZM4.05 6.263l1.132 2.852c.217.547.292 1.143.201 1.643-.088.487-.323.85-.718 1.057-.232.12-.438.178-.615.178-.176 0-.383-.057-.615-.178-.394-.206-.63-.57-.718-1.057-.09-.5-.015-1.096.202-1.643L4.05 6.263ZM16 3.933l-1.136 3.18c-.2.56-.252 1.17-.138 1.664.111.48.363.81.766.967.182.07.352.106.508.106.157 0 .327-.036.509-.106.402-.157.654-.488.765-.967.114-.494.062-1.104-.138-1.664L16 3.933Z" clip-rule="evenodd"/>
	</svg>
	<svg id="icon-wishlist" xmlns="http://www.w3.org/2000/svg" fill="none" viewBox="0 0 24 22">
		<path fill="currentColor" fill-rule="evenodd" d="M14.464 1.582a6.33 6.33 0 0 1 8.755 5.85 6.33 6.33 0 0 1-1.855 4.477l-8.728 8.728a.9.9 0 0 1-1.273 0l-8.727-8.728a6.331 6.331 0 0 1 8.954-8.954l.41.41.41-.41a6.33 6.33 0 0 1 2.054-1.373zM16.887 2.9a4.53 4.53 0 0 0-3.204 1.328l-1.047 1.046a.9.9 0 0 1-1.273 0l-1.046-1.046a4.531 4.531 0 0 0-6.408 6.408l8.09 8.091 8.092-8.09A4.531 4.531 0 0 0 16.887 2.9z" clip-rule="evenodd"/>
	</svg>
	<svg id="icon-wc-active" viewBox="0 0 8 7" fill="none" xmlns="http://www.w3.org/2000/svg">
		<path fill-rule="evenodd" clip-rule="evenodd" d="M7.498.44a.75.75 0 0 1 .063 1.058l-4 4.5a.75.75 0 0 1-1.091.032l-2-2a.75.75 0 0 1 1.06-1.06l1.438 1.437L6.439.502A.75.75 0 0 1 7.5.439z" fill="#00AC45"/>
	</svg>
	<svg id="icon-add-to-cart" xmlns="http://www.w3.org/2000/svg" fill="none" viewBox="0 0 25 22">
		<path fill="currentColor" fill-rule="evenodd" d="M1.5 1.913c0-.488.395-.883.882-.883h2.016c1.1 0 2.087.682 2.476 1.712l.465 1.23a.895.895 0 0 1 .043 0l13.83-.012c1.886-.002 3.168 1.914 2.448 3.657l-2.276 5.51a2.059 2.059 0 0 1-1.534 1.24l-7.628 1.386a2.647 2.647 0 0 1-2.95-1.669L5.224 3.365a.882.882 0 0 0-.825-.57H2.382a.882.882 0 0 1-.882-.882zm6.505 3.822 2.918 7.725c.15.399.565.633.984.557l7.627-1.387a.294.294 0 0 0 .22-.177l2.275-5.51a.882.882 0 0 0-.816-1.219l-13.208.011z" clip-rule="evenodd"/>
		<path fill="currentColor" d="M9.147 21.03a1.765 1.765 0 1 0 0-3.53 1.765 1.765 0 0 0 0 3.53zm10.588 0a1.765 1.765 0 1 0 0-3.53 1.765 1.765 0 0 0 0 3.53z"/>
	</svg>
	<svg id="icon-viewed" viewBox="0 0 24 18" fill="none" xmlns="http://www.w3.org/2000/svg">
		<path fill="currentColor" fill-rule="evenodd" clip-rule="evenodd" d="M1.93 9a17.632 17.632 0 0 0 2.507 3.122c1.799 1.772 4.358 3.463 7.563 3.463s5.764-1.69 7.564-3.463A17.635 17.635 0 0 0 22.07 9a17.63 17.63 0 0 0-2.507-3.122C17.765 4.106 15.206 2.415 12 2.415s-5.764 1.69-7.564 3.463A17.627 17.627 0 0 0 1.93 9zM23 9l.703-.382-.001-.002-.004-.007-.01-.02-.04-.07-.15-.253a16.77 16.77 0 0 0-.577-.879 19.228 19.228 0 0 0-2.235-2.65C18.736 2.817 15.796.815 12 .815c-3.795 0-6.736 2.002-8.686 3.922-.98.966-1.73 1.929-2.235 2.65A16.764 16.764 0 0 0 .353 8.52l-.04.07-.011.02-.004.007v.002H.296L1 9l-.703-.381a.8.8 0 0 0 0 .762L1 9c-.703.38-.703.381-.703.382l.001.002.004.006.01.02a6.614 6.614 0 0 0 .19.323c.131.215.324.518.577.88a19.227 19.227 0 0 0 2.235 2.65c1.95 1.92 4.89 3.922 8.686 3.922 3.795 0 6.736-2.002 8.686-3.923.98-.965 1.73-1.928 2.235-2.65a16.773 16.773 0 0 0 .726-1.131l.04-.07.011-.02.004-.007v-.002h.001L23 9zm0 0 .703.38a.8.8 0 0 0 0-.761l-.703.38z"/>
		<path fill="currentColor" fill-rule="evenodd" clip-rule="evenodd" d="M12 6.8a2.2 2.2 0 1 0 0 4.4 2.2 2.2 0 0 0 0-4.4zM8.2 9a3.8 3.8 0 1 1 7.6 0 3.8 3.8 0 0 1-7.6 0z"/>
	</svg>
	<svg id="icon-fastorder" xmlns="http://www.w3.org/2000/svg" fill="none" viewBox="0 0 20 19">
		<path fill="currentColor" fill-rule="evenodd" clip-rule="evenodd" d="M16.376 3.21a.189.189 0 0 0-.121.018L3.093 9.063a.186.186 0 0 0-.096.08.21.21 0 0 0-.022.12.21.21 0 0 0 .044.115.187.187 0 0 0 .11.061l4.64 1.092A1.8 1.8 0 0 1 9.12 11.9l.96 4.435a.185.185 0 0 0 .06.11c.026.022.066.04.114.046a.214.214 0 0 0 .121-.02.186.186 0 0 0 .083-.093l6.061-12.884a.185.185 0 0 0 .02-.12.21.21 0 0 0-.058-.104.212.212 0 0 0-.104-.06zM15.6 1.773c1.527-.677 3.081.893 2.373 2.397l-6.06 12.883c-.733 1.558-3.04 1.299-3.403-.382l-.961-4.435a.2.2 0 0 0-.15-.152l-4.64-1.092c-1.682-.396-1.898-2.684-.32-3.384L15.6 1.772z"/><path fill="currentColor" fill-rule="evenodd" clip-rule="evenodd" d="M7.692 12.03a.8.8 0 0 1 .014-1.131l2.888-2.818a.8.8 0 0 1 1.118 1.145l-2.89 2.818a.8.8 0 0 1-1.13-.014z"/>
	</svg>
	<svg id="icon-sstock" xmlns="http://www.w3.org/2000/svg" fill="none" viewBox="0 0 7 6">
		<path fill="currentColor" fill-rule="evenodd" d="M6.528.49a.5.5 0 0 1 .064.705l-3.333 4a.5.5 0 0 1-.738.034l-2-2a.5.5 0 0 1 .708-.708L2.84 4.134 5.824.554a.5.5 0 0 1 .704-.063z" clip-rule="evenodd"/>
	</svg>
	<svg id="icon-rating" xmlns="http://www.w3.org/2000/svg" fill="none" viewBox="0 0 40 40">
		<path fill="#E9A631" d="M34.498 9.347a.914.914 0 0 1 1.31.21A19.001 19.001 0 1 1 23.107 1.36a.914.914 0 0 1 .73 1.106c-.11.513-.616.836-1.134.753A17.1 17.1 0 1 0 34.28 10.69c-.289-.438-.203-1.032.218-1.344Z"/>
		<path fill="#E9A631" fill-rule="evenodd" d="m29.85 7.616-1.882 1.035c-.316.174-.684-.106-.624-.473l.36-2.192-1.524-1.551c-.255-.26-.113-.713.239-.766l2.104-.32.941-1.993a.421.421 0 0 1 .772 0l.94 1.992 2.106.32c.352.054.494.507.238.766l-1.523 1.552.36 2.192c.06.367-.31.647-.625.474L29.85 7.616Z" clip-rule="evenodd"/>
	</svg>
	<svg id="icon-close" xmlns="http://www.w3.org/2000/svg" fill="none" viewBox="0 0 16 16">
		<path fill="currentColor" fill-rule="evenodd" d="M1.293 1.293a1 1 0 0 1 1.414 0L8 6.586l5.293-5.293a1 1 0 1 1 1.414 1.414L9.414 8l5.293 5.293a1 1 0 0 1-1.414 1.414L8 9.414l-5.293 5.293a1 1 0 0 1-1.414-1.414L6.586 8 1.293 2.707a1 1 0 0 1 0-1.414z" clip-rule="evenodd"/>
	</svg>
	<svg id="icon-calendar" xmlns="http://www.w3.org/2000/svg" viewBox="0 0 24 24" fill="none" stroke="currentColor" stroke-width="1.5" stroke-linecap="round" stroke-linejoin="round">
		<rect x="3" y="4" width="18" height="18" rx="2" ry="2"/><path d="M16 2v4M8 2v4M3 10h18"/>
	</svg>
	<svg id="icon-aviewed" xmlns="http://www.w3.org/2000/svg" viewBox="0 0 24 24" fill="none" stroke="currentColor" stroke-width="1.5" stroke-linecap="round" stroke-linejoin="round">
		<path d="M1 12s4-8 11-8 11 8 11 8-4 8-11 8-11-8-11-8z"/><circle cx="12" cy="12" r="3"/>
	</svg>
	<svg id="icon-comment" xmlns="http://www.w3.org/2000/svg" viewBox="0 0 24 24" fill="none" stroke="currentColor" stroke-width="1.5" stroke-linecap="round" stroke-linejoin="round">
		<path d="M21 11.5a8.38 8.38 0 0 1-.9 3.8 8.5 8.5 0 0 1-7.6 4.7 8.38 8.38 0 0 1-3.8-.9L3 21l1.9-5.7a8.38 8.38 0 0 1-.9-3.8 8.5 8.5 0 0 1 4.7-7.6 8.38 8.38 0 0 1 3.8-.9h.5a8.48 8.48 0 0 1 8 8v.5z"/>
	</svg>
</svg>